<svg width="30" height="30" viewBox="0 0 30 30" fill="none" xmlns="http://www.w3.org/2000/svg">
<rect width="29.1667" height="29.1667" rx="14.5833" fill="#1E1E1E"/>
<path fill-rule="evenodd" clip-rule="evenodd" d="M14.3216 8.55627C11.1846 8.77587 8.70801 11.3902 8.70801 14.583C8.70801 17.9197 11.413 20.6247 14.7497 20.6247C17.4229 20.6247 19.6911 18.8882 20.487 16.4819C19.8744 16.735 19.2031 16.8747 18.4997 16.8747C15.6232 16.8747 13.2913 14.5428 13.2913 11.6663C13.2913 10.5004 13.6748 9.42391 14.3216 8.55627ZM7.45801 14.583C7.45801 10.5559 10.7226 7.29134 14.7497 7.29134C15.1244 7.29134 15.4928 7.31965 15.853 7.37435C16.1021 7.41219 16.3041 7.59595 16.3654 7.84039C16.4266 8.08483 16.3351 8.34213 16.1332 8.49295C15.1657 9.21579 14.5413 10.3681 14.5413 11.6663C14.5413 13.8525 16.3135 15.6247 18.4997 15.6247C19.4449 15.6247 20.3112 15.2942 20.9918 14.7419C21.1874 14.5832 21.4591 14.5574 21.681 14.6764C21.903 14.7955 22.0318 15.0361 22.0078 15.2868C21.6533 18.984 18.5394 21.8747 14.7497 21.8747C10.7226 21.8747 7.45801 18.6101 7.45801 14.583Z" fill="#ACC2FD"/>
</svg>
