<svg width="30" height="30" viewBox="0 0 30 30" fill="none" xmlns="http://www.w3.org/2000/svg">
<rect width="29.1667" height="29.1667" rx="14.5833" fill="#1E1E1E"/>
<path d="M14.5501 5.62466C14.8953 5.62466 15.1751 5.90449 15.1751 6.24966V7.083C15.1751 7.42818 14.8953 7.708 14.5501 7.708C14.205 7.708 13.9251 7.42818 13.9251 7.083V6.24966C13.9251 5.90449 14.205 5.62466 14.5501 5.62466Z" fill="#FDE3AC"/>
<path fill-rule="evenodd" clip-rule="evenodd" d="M9.75846 14.583C9.75846 11.9366 11.9038 9.79133 14.5501 9.79133C17.1965 9.79133 19.3418 11.9366 19.3418 14.583C19.3418 17.2294 17.1965 19.3747 14.5501 19.3747C11.9038 19.3747 9.75846 17.2294 9.75846 14.583ZM14.5501 11.0413C12.5941 11.0413 11.0085 12.627 11.0085 14.583C11.0085 16.539 12.5941 18.1247 14.5501 18.1247C16.5061 18.1247 18.0918 16.539 18.0918 14.583C18.0918 12.627 16.5061 11.0413 14.5501 11.0413Z" fill="#FDE3AC"/>
<path d="M9.09953 8.24852C8.85545 8.00444 8.45972 8.00444 8.21564 8.24852C7.97157 8.4926 7.97157 8.88832 8.21564 9.1324L8.8049 9.72166C9.04898 9.96574 9.44471 9.96574 9.68878 9.72166C9.93286 9.47758 9.93286 9.08185 9.68878 8.83777L9.09953 8.24852Z" fill="#FDE3AC"/>
<path d="M23.5085 14.583C23.5085 14.9282 23.2286 15.208 22.8835 15.208H22.0501C21.705 15.208 21.4251 14.9282 21.4251 14.583C21.4251 14.2378 21.705 13.958 22.0501 13.958H22.8835C23.2286 13.958 23.5085 14.2378 23.5085 14.583Z" fill="#FDE3AC"/>
<path d="M20.8846 9.13239C21.1287 8.88832 21.1287 8.49259 20.8846 8.24851C20.6405 8.00443 20.2448 8.00443 20.0007 8.24851L19.4115 8.83777C19.1674 9.08184 19.1674 9.47757 19.4115 9.72165C19.6555 9.96573 20.0513 9.96573 20.2954 9.72165L20.8846 9.13239Z" fill="#FDE3AC"/>
<path d="M14.5501 21.458C14.8953 21.458 15.1751 21.7378 15.1751 22.083V22.9163C15.1751 23.2615 14.8953 23.5413 14.5501 23.5413C14.205 23.5413 13.9251 23.2615 13.9251 22.9163V22.083C13.9251 21.7378 14.205 21.458 14.5501 21.458Z" fill="#FDE3AC"/>
<path d="M20.2954 19.4443C20.0513 19.2003 19.6556 19.2003 19.4115 19.4443C19.1674 19.6884 19.1674 20.0842 19.4115 20.3282L20.0008 20.9175C20.2449 21.1616 20.6406 21.1616 20.8847 20.9175C21.1287 20.6734 21.1287 20.2777 20.8847 20.0336L20.2954 19.4443Z" fill="#FDE3AC"/>
<path d="M7.67513 14.583C7.67513 14.9282 7.39531 15.208 7.05013 15.208H6.2168C5.87162 15.208 5.5918 14.9282 5.5918 14.583C5.5918 14.2378 5.87162 13.958 6.2168 13.958H7.05013C7.39531 13.958 7.67513 14.2378 7.67513 14.583Z" fill="#FDE3AC"/>
<path d="M9.68873 20.3282C9.9328 20.0841 9.9328 19.6884 9.68873 19.4443C9.44465 19.2003 9.04892 19.2003 8.80484 19.4443L8.21559 20.0336C7.97151 20.2777 7.97151 20.6734 8.21559 20.9175C8.45967 21.1616 8.85539 21.1616 9.09947 20.9175L9.68873 20.3282Z" fill="#FDE3AC"/>
</svg>
